<svg xmlns="http://www.w3.org/2000/svg" width="2580" height="480" viewBox="0 0 2580 480">
<rect width="100%" height="100%" fill="#0f1419"/>
<text x="1290.0" y="28" fill="#e8eef4" text-anchor="middle" font-size="16" font-family="sans-serif">Per-category correctness</text>
<rect x="52.0" y="64.0" width="33.4" height="326.0" fill="#5b8def" rx="2"/>
<rect x="93.8" y="64.0" width="33.4" height="326.0" fill="#3ccf91" rx="2"/>
<text x="89.8" y="444" fill="#c5d0da" text-anchor="middle" font-size="9" font-family="sans-serif">adversarial</text>
<rect x="135.6" y="194.6" width="33.4" height="195.4" fill="#5b8def" rx="2"/>
<rect x="177.4" y="64.0" width="33.4" height="326.0" fill="#3ccf91" rx="2"/>
<text x="173.4" y="444" fill="#c5d0da" text-anchor="middle" font-size="9" font-family="sans-serif">already_correct</text>
<rect x="219.2" y="149.4" width="33.4" height="240.6" fill="#5b8def" rx="2"/>
<rect x="261.0" y="64.0" width="33.4" height="326.0" fill="#3ccf91" rx="2"/>
<text x="257.0" y="444" fill="#c5d0da" text-anchor="middle" font-size="9" font-family="sans-serif">ambiguity</text>
<rect x="302.8" y="192.1" width="33.4" height="197.9" fill="#5b8def" rx="2"/>
<rect x="344.6" y="86.5" width="33.4" height="303.5" fill="#3ccf91" rx="2"/>
<text x="340.6" y="444" fill="#c5d0da" text-anchor="middle" font-size="9" font-family="sans-serif">articles</text>
<rect x="386.4" y="171.9" width="33.4" height="218.1" fill="#5b8def" rx="2"/>
<rect x="428.2" y="83.2" width="33.4" height="306.8" fill="#3ccf91" rx="2"/>
<text x="424.2" y="444" fill="#c5d0da" text-anchor="middle" font-size="9" font-family="sans-serif">awkward_phrasing</text>
<rect x="470.0" y="80.5" width="33.4" height="309.5" fill="#5b8def" rx="2"/>
<rect x="511.8" y="64.0" width="33.4" height="326.0" fill="#3ccf91" rx="2"/>
<text x="507.8" y="444" fill="#c5d0da" text-anchor="middle" font-size="9" font-family="sans-serif">capitalization</text>
<rect x="553.6" y="178.8" width="33.4" height="211.2" fill="#5b8def" rx="2"/>
<rect x="595.4" y="122.1" width="33.4" height="267.9" fill="#3ccf91" rx="2"/>
<text x="591.4" y="444" fill="#c5d0da" text-anchor="middle" font-size="9" font-family="sans-serif">concise_rewritin</text>
<rect x="637.2" y="242.1" width="33.4" height="147.9" fill="#5b8def" rx="2"/>
<rect x="679.0" y="73.5" width="33.4" height="316.5" fill="#3ccf91" rx="2"/>
<text x="675.0" y="444" fill="#c5d0da" text-anchor="middle" font-size="9" font-family="sans-serif">context_dependen</text>
<rect x="720.8" y="192.4" width="33.4" height="197.6" fill="#5b8def" rx="2"/>
<rect x="762.6" y="122.7" width="33.4" height="267.3" fill="#3ccf91" rx="2"/>
<text x="758.6" y="444" fill="#c5d0da" text-anchor="middle" font-size="9" font-family="sans-serif">formal_informal</text>
<rect x="804.4" y="219.2" width="33.4" height="170.8" fill="#5b8def" rx="2"/>
<rect x="846.2" y="159.3" width="33.4" height="230.7" fill="#3ccf91" rx="2"/>
<text x="842.2" y="444" fill="#c5d0da" text-anchor="middle" font-size="9" font-family="sans-serif">fragments</text>
<rect x="888.0" y="390.0" width="33.4" height="0.0" fill="#5b8def" rx="2"/>
<rect x="929.8" y="129.2" width="33.4" height="260.8" fill="#3ccf91" rx="2"/>
<text x="925.8" y="444" fill="#c5d0da" text-anchor="middle" font-size="9" font-family="sans-serif">invent_complete</text>
<rect x="971.6" y="390.0" width="33.4" height="0.0" fill="#5b8def" rx="2"/>
<rect x="1013.4" y="145.5" width="33.4" height="244.5" fill="#3ccf91" rx="2"/>
<text x="1009.4" y="444" fill="#c5d0da" text-anchor="middle" font-size="9" font-family="sans-serif">invent_mistake</text>
<rect x="1055.2" y="224.3" width="33.4" height="165.7" fill="#5b8def" rx="2"/>
<rect x="1097.0" y="85.4" width="33.4" height="304.6" fill="#3ccf91" rx="2"/>
<text x="1093.0" y="444" fill="#c5d0da" text-anchor="middle" font-size="9" font-family="sans-serif">judge_completion</text>
<rect x="1138.8" y="322.6" width="33.4" height="67.4" fill="#5b8def" rx="2"/>
<rect x="1180.6" y="187.7" width="33.4" height="202.3" fill="#3ccf91" rx="2"/>
<text x="1176.6" y="444" fill="#c5d0da" text-anchor="middle" font-size="9" font-family="sans-serif">judge_mistake</text>
<rect x="1222.4" y="226.3" width="33.4" height="163.7" fill="#5b8def" rx="2"/>
<rect x="1264.2" y="64.0" width="33.4" height="326.0" fill="#3ccf91" rx="2"/>
<text x="1260.2" y="444" fill="#c5d0da" text-anchor="middle" font-size="9" font-family="sans-serif">meaning_preserva</text>
<rect x="1306.0" y="98.4" width="33.4" height="291.6" fill="#5b8def" rx="2"/>
<rect x="1347.8" y="65.7" width="33.4" height="324.3" fill="#3ccf91" rx="2"/>
<text x="1343.8" y="444" fill="#c5d0da" text-anchor="middle" font-size="9" font-family="sans-serif">multiple_errors</text>
<rect x="1389.6" y="140.8" width="33.4" height="249.2" fill="#5b8def" rx="2"/>
<rect x="1431.4" y="64.3" width="33.4" height="325.7" fill="#3ccf91" rx="2"/>
<text x="1427.4" y="444" fill="#c5d0da" text-anchor="middle" font-size="9" font-family="sans-serif">multiple_valid</text>
<rect x="1473.2" y="194.4" width="33.4" height="195.6" fill="#5b8def" rx="2"/>
<rect x="1515.0" y="138.4" width="33.4" height="251.6" fill="#3ccf91" rx="2"/>
<text x="1511.0" y="444" fill="#c5d0da" text-anchor="middle" font-size="9" font-family="sans-serif">natural_english</text>
<rect x="1556.8" y="184.5" width="33.4" height="205.5" fill="#5b8def" rx="2"/>
<rect x="1598.6" y="64.0" width="33.4" height="326.0" fill="#3ccf91" rx="2"/>
<text x="1594.6" y="444" fill="#c5d0da" text-anchor="middle" font-size="9" font-family="sans-serif">prepositions</text>
<rect x="1640.4" y="178.8" width="33.4" height="211.2" fill="#5b8def" rx="2"/>
<rect x="1682.2" y="85.0" width="33.4" height="305.0" fill="#3ccf91" rx="2"/>
<text x="1678.2" y="444" fill="#c5d0da" text-anchor="middle" font-size="9" font-family="sans-serif">pronouns</text>
<rect x="1724.0" y="157.8" width="33.4" height="232.2" fill="#5b8def" rx="2"/>
<rect x="1765.8" y="64.0" width="33.4" height="326.0" fill="#3ccf91" rx="2"/>
<text x="1761.8" y="444" fill="#c5d0da" text-anchor="middle" font-size="9" font-family="sans-serif">punctuation</text>
<rect x="1807.6" y="184.8" width="33.4" height="205.2" fill="#5b8def" rx="2"/>
<rect x="1849.4" y="109.1" width="33.4" height="280.9" fill="#3ccf91" rx="2"/>
<text x="1845.4" y="444" fill="#c5d0da" text-anchor="middle" font-size="9" font-family="sans-serif">redundant_wordin</text>
<rect x="1891.2" y="114.1" width="33.4" height="275.9" fill="#5b8def" rx="2"/>
<rect x="1933.0" y="66.9" width="33.4" height="323.1" fill="#3ccf91" rx="2"/>
<text x="1929.0" y="444" fill="#c5d0da" text-anchor="middle" font-size="9" font-family="sans-serif">run_on</text>
<rect x="1974.8" y="193.5" width="33.4" height="196.5" fill="#5b8def" rx="2"/>
<rect x="2016.6" y="64.0" width="33.4" height="326.0" fill="#3ccf91" rx="2"/>
<text x="2012.6" y="444" fill="#c5d0da" text-anchor="middle" font-size="9" font-family="sans-serif">sentence_structu</text>
<rect x="2058.4" y="171.6" width="33.4" height="218.4" fill="#5b8def" rx="2"/>
<rect x="2100.2" y="83.0" width="33.4" height="307.0" fill="#3ccf91" rx="2"/>
<text x="2096.2" y="444" fill="#c5d0da" text-anchor="middle" font-size="9" font-family="sans-serif">spelling</text>
<rect x="2142.0" y="138.2" width="33.4" height="251.8" fill="#5b8def" rx="2"/>
<rect x="2183.8" y="70.2" width="33.4" height="319.8" fill="#3ccf91" rx="2"/>
<text x="2179.8" y="444" fill="#c5d0da" text-anchor="middle" font-size="9" font-family="sans-serif">subject_verb_agr</text>
<rect x="2225.6" y="159.0" width="33.4" height="231.0" fill="#5b8def" rx="2"/>
<rect x="2267.4" y="64.0" width="33.4" height="326.0" fill="#3ccf91" rx="2"/>
<text x="2263.4" y="444" fill="#c5d0da" text-anchor="middle" font-size="9" font-family="sans-serif">subtle_distincti</text>
<rect x="2309.2" y="135.6" width="33.4" height="254.4" fill="#5b8def" rx="2"/>
<rect x="2351.0" y="78.0" width="33.4" height="312.0" fill="#3ccf91" rx="2"/>
<text x="2347.0" y="444" fill="#c5d0da" text-anchor="middle" font-size="9" font-family="sans-serif">verb_tense</text>
<rect x="2392.8" y="123.6" width="33.4" height="266.4" fill="#5b8def" rx="2"/>
<rect x="2434.6" y="87.0" width="33.4" height="303.0" fill="#3ccf91" rx="2"/>
<text x="2430.6" y="444" fill="#c5d0da" text-anchor="middle" font-size="9" font-family="sans-serif">word_choice</text>
<rect x="2476.4" y="186.4" width="33.4" height="203.6" fill="#5b8def" rx="2"/>
<rect x="2518.2" y="64.0" width="33.4" height="326.0" fill="#3ccf91" rx="2"/>
<text x="2514.2" y="444" fill="#c5d0da" text-anchor="middle" font-size="9" font-family="sans-serif">word_order</text>
<rect x="48" y="458" width="10" height="10" fill="#5b8def"/><text x="64" y="467" fill="#c5d0da" font-size="11" font-family="sans-serif">tinyllama-1.1b-chat</text>
<rect x="188" y="458" width="10" height="10" fill="#3ccf91"/><text x="204" y="467" fill="#c5d0da" font-size="11" font-family="sans-serif">qwen2.5-7b-instruct-aw</text>
</svg>